<?xml version="1.0" encoding="UTF-8"?>
<svg width="18px" height="18px" viewBox="0 0 18 18" version="1.1" xmlns="http://www.w3.org/2000/svg">
    <g stroke="none" stroke-width="1" fill="none" fill-rule="evenodd">
        <path d="M14.94,9.5 C14.94,7.5 16.5,6.5 16.6,6.44 C15.6,4.94 14.1,4.7 13.5,4.68 C12.1,4.5 10.7,5.5 10,5.5 C9.3,5.5 8.1,4.7 6.9,4.72 C5.3,4.74 3.8,5.6 2.9,7.04 C1.1,9.5 2.3,13.5 4,15.5 C4.9,16.5 6,17.6 7.3,17.56 C8.6,17.5 9.1,16.8 10.6,16.8 C12.1,16.8 12.6,17.56 14,17.54 C15.4,17.5 16.4,16.5 17.3,15.5 C18.2,14.4 18.6,13.3 18.6,13.28 C18.6,13.26 18.6,13.24 18.6,13.22 C18.5,13.22 16.1,12.3 16.1,9.5 L14.94,9.5 Z M12.7,3.5 C13.5,2.6 14,1.4 13.9,0.2 C12.9,0.24 11.7,0.9 10.9,1.8 C10.2,2.6 9.6,3.8 9.7,5 C10.8,5.06 12,4.4 12.7,3.5 Z" fill="#000000"></path>
    </g>
</svg> 